<svg width="584" height="685" viewBox="0 0 584 685" fill="none" xmlns="http://www.w3.org/2000/svg">
<path fill-rule="evenodd" clip-rule="evenodd" d="M364.825 61.8848C364.825 61.8848 397.215 69.6851 405.238 40.7868C413.187 11.9627 397.215 6.09389 377.157 14.6371C357.099 23.1803 343.504 35.2151 333.846 16.1972C324.263 -2.74648 295.81 -2.07788 299.005 12.3341C302.199 26.7462 303.759 37.5924 296.33 41.3811C295.142 41.9754 279.17 28.5291 265.426 29.6434C255.546 30.4606 244.031 40.1925 252.649 61.3648C256.14 69.908 237.494 78.9712 237.271 87.5144C236.974 96.0577 236.974 111.658 246.854 123.247C256.734 134.836 290.016 38.4095 364.825 61.8848Z" stroke="#332C2B" stroke-width="2.66651"/>
<path fill-rule="evenodd" clip-rule="evenodd" d="M257.774 155.192C257.774 155.192 248.487 135.505 236.898 149.026C225.384 162.546 243.064 170.867 250.419 177.998C257.774 185.13 233.258 297.455 233.258 297.455C233.258 297.455 252.87 333.262 308.439 327.913C363.932 322.49 356.058 281.186 356.058 281.186L335.405 224.206C335.405 224.206 350.189 213.88 354.869 176.513C359.475 139.22 361.704 119.533 359.475 91.0061C357.321 62.5535 284.072 68.1995 268.1 88.3317C252.128 108.464 257.774 155.192 257.774 155.192Z" fill="#FFC482" stroke="#332C2B" stroke-width="3.99997" stroke-linecap="round" stroke-linejoin="round"/>
<path fill-rule="evenodd" clip-rule="evenodd" d="M142.775 321.004C129.552 335.268 111.871 335.713 107.414 347.079C103.031 358.371 80.3728 394.699 69.6009 424.191C58.7548 453.684 -16.4255 665.927 6.23256 675.288C28.8164 684.648 519.717 683.682 542.301 675.808C564.884 667.933 578.702 665.927 578.182 618.754C577.662 571.58 550.695 456.656 537.398 428.129C524.1 399.602 514.814 345.074 482.35 331.33C449.96 317.587 467.12 308.226 430.793 305.255C394.392 302.358 347.218 299.386 347.218 299.386C347.218 299.386 338.898 327.393 308.439 327.913C277.907 328.359 253.837 321.524 247.003 312.164C240.094 302.803 236.676 293.517 215.504 295.969C207.481 296.86 145.004 318.627 142.775 321.004Z" fill="#E11538" stroke="#332C2B" stroke-width="3.99997"/>
<path fill-rule="evenodd" clip-rule="evenodd" d="M449.96 393.436C449.96 393.436 362.225 256.224 347.442 266.996C332.733 277.842 376.489 332.37 376.489 332.37C376.489 332.37 349.448 351.537 348.408 358.446C347.442 365.28 351.156 368.029 345.733 371.223C340.31 374.418 331.767 372.932 345.733 391.356C359.774 409.779 394.17 443.655 394.17 443.655L449.96 393.436Z" fill="#FFC482" stroke="#332C2B" stroke-width="3.99997"/>
<path fill-rule="evenodd" clip-rule="evenodd" d="M393.946 442.319L449.96 393.437L463.257 411.117C463.257 411.117 476.778 403.763 485.841 409.631C494.979 415.575 564.736 512.373 569.862 527.602C575.062 542.831 579.222 559.026 579.742 581.61C580.188 604.268 587.617 643.047 572.833 655.825C558.124 668.602 522.688 686.803 451 672.02C379.237 657.31 420.021 531.539 420.021 531.539L393.946 442.319Z" fill="#E11538" stroke="#332C2B" stroke-width="3.99997"/>
<path d="M400.261 463.789L463.258 411.118" stroke="#332C2B" stroke-width="3.99997"/>
<path fill-rule="evenodd" clip-rule="evenodd" d="M205.995 454.8L537.175 452.794L447.731 680.786L135.198 677.889L205.995 454.8Z" fill="#40BD01" stroke="#332C2B" stroke-width="3.99997" stroke-linejoin="round"/>
<path d="M161.275 595.874L79.1855 592.902" stroke="#332C2B" stroke-width="3.99997" stroke-linecap="round" stroke-linejoin="round"/>
<path d="M134.231 594.908C134.231 594.908 140.62 567.347 141.066 564.896" stroke="#332C2B" stroke-width="3.99997" stroke-linecap="round" stroke-linejoin="round"/>
<path d="M335.406 224.207C335.406 224.207 326.492 235.796 309.851 227.995C293.285 220.269 281.398 208.978 281.398 208.978" stroke="#332C2B" stroke-width="3.99997" stroke-linecap="round"/>
<path fill-rule="evenodd" clip-rule="evenodd" d="M359.476 91.0059C359.476 91.0059 348.482 73.2509 328.647 74.6624C308.886 76.1482 286.153 76.891 275.604 87.2172C265.055 97.5433 255.472 146.203 255.472 146.203C255.472 146.203 234.82 115.224 235.34 103.189C235.785 91.1545 233.854 84.2456 250.049 78.5997C266.244 72.9537 264.09 62.4047 265.055 46.6555C266.021 30.9806 286.079 41.5296 286.079 41.5296C286.079 41.5296 298.708 49.2556 300.045 37.9637C301.383 26.6718 301.308 8.61961 311.263 8.6939C321.143 8.6939 337.264 34.2493 342.464 30.1634C347.59 26.0775 360.145 5.42519 375.671 8.6939C391.198 12.0369 397.438 26.969 396.324 30.7577C395.209 34.6207 394.838 51.2614 374.557 59.4332C354.276 67.5307 364.379 82.6113 359.476 91.0059Z" fill="#AD77FF" stroke="#332C2B" stroke-width="3.99997"/>
<path fill-rule="evenodd" clip-rule="evenodd" d="M315.051 161.135C315.051 161.135 322.554 173.021 337.264 167.152C337.264 167.152 330.652 176.587 323.149 175.101C315.646 173.615 315.051 161.135 315.051 161.135Z" fill="#332C2B" stroke="#332C2B" stroke-width="0.755924"/>
<path fill-rule="evenodd" clip-rule="evenodd" d="M329.538 135.801L333.475 155.487L324.857 156.23L329.018 150.287L329.538 135.801Z" fill="#332C2B" stroke="#332C2B" stroke-width="0.755924"/>
<path fill-rule="evenodd" clip-rule="evenodd" d="M334.812 108.167L334.589 115.67C334.589 115.67 351.75 114.036 356.95 119.236C356.95 119.236 349.076 109.43 334.812 108.167Z" fill="#332C2B" stroke="#332C2B" stroke-width="0.755924" stroke-linecap="round" stroke-linejoin="round"/>
<path fill-rule="evenodd" clip-rule="evenodd" d="M321.589 108.167L321.738 115.67C321.738 115.67 304.577 114.036 299.451 119.236C299.451 119.236 307.326 109.43 321.589 108.167Z" fill="#332C2B" stroke="#332C2B" stroke-width="0.755924" stroke-linecap="round" stroke-linejoin="round"/>
<path fill-rule="evenodd" clip-rule="evenodd" d="M325.897 134.391C325.897 134.391 306.285 121.39 292.245 136.025C292.245 136.025 309.108 153.409 325.897 134.391Z" fill="white" stroke="#332C2B" stroke-width="0.755924"/>
<path d="M305.987 142.713C309.762 142.713 312.822 139.653 312.822 135.879C312.822 132.104 309.762 129.044 305.987 129.044C302.213 129.044 299.153 132.104 299.153 135.879C299.153 139.653 302.213 142.713 305.987 142.713Z" fill="#332C2B" stroke="#332C2B" stroke-width="0.755924"/>
<path fill-rule="evenodd" clip-rule="evenodd" d="M361.184 133.501C361.184 133.501 344.766 122.655 333.029 134.838C333.029 134.838 347.144 149.473 361.184 133.501Z" fill="white" stroke="#332C2B" stroke-width="0.755924"/>
<path d="M344.543 140.484C347.703 140.484 350.264 137.923 350.264 134.764C350.264 131.605 347.703 129.044 344.543 129.044C341.384 129.044 338.823 131.605 338.823 134.764C338.823 137.923 341.384 140.484 344.543 140.484Z" fill="#332C2B" stroke="#332C2B" stroke-width="0.755924"/>
<path d="M305.988 154.449C316.245 154.449 324.56 146.134 324.56 135.877C324.56 125.62 316.245 117.305 305.988 117.305C295.731 117.305 287.416 125.62 287.416 135.877C287.416 146.134 295.731 154.449 305.988 154.449Z" stroke="#35EEE0" stroke-width="1.33345"/>
<path d="M356.654 153.409C366.911 153.409 375.226 145.094 375.226 134.837C375.226 124.58 366.911 116.265 356.654 116.265C346.397 116.265 338.082 124.58 338.082 134.837C338.082 145.094 346.397 153.409 356.654 153.409Z" stroke="#35EEE0" stroke-width="1.33345"/>
<path d="M324.56 135.877L338.081 135.432" stroke="#35EEE0" stroke-width="1.33345"/>
</svg>
