<svg width="230" height="64" viewBox="0 0 230 64" fill="none" xmlns="http://www.w3.org/2000/svg">
<path d="M46.27 14.18C45.46 14.18 44.705 14.05 44.005 13.79C43.315 13.52 42.715 13.14 42.205 12.65C41.695 12.16 41.295 11.585 41.005 10.925C40.725 10.265 40.585 9.54 40.585 8.75C40.585 7.96 40.725 7.235 41.005 6.575C41.295 5.915 41.695 5.34 42.205 4.85C42.725 4.36 43.33 3.985 44.02 3.725C44.71 3.455 45.465 3.32 46.285 3.32C47.195 3.32 48.015 3.48 48.745 3.8C49.485 4.11 50.105 4.57 50.605 5.18L49.045 6.62C48.685 6.21 48.285 5.905 47.845 5.705C47.405 5.495 46.925 5.39 46.405 5.39C45.915 5.39 45.465 5.47 45.055 5.63C44.645 5.79 44.29 6.02 43.99 6.32C43.69 6.62 43.455 6.975 43.285 7.385C43.125 7.795 43.045 8.25 43.045 8.75C43.045 9.25 43.125 9.705 43.285 10.115C43.455 10.525 43.69 10.88 43.99 11.18C44.29 11.48 44.645 11.71 45.055 11.87C45.465 12.03 45.915 12.11 46.405 12.11C46.925 12.11 47.405 12.01 47.845 11.81C48.285 11.6 48.685 11.285 49.045 10.865L50.605 12.305C50.105 12.915 49.485 13.38 48.745 13.7C48.015 14.02 47.19 14.18 46.27 14.18ZM55.6427 14.12C54.7827 14.12 54.0177 13.94 53.3477 13.58C52.6877 13.22 52.1627 12.73 51.7727 12.11C51.3927 11.48 51.2027 10.765 51.2027 9.965C51.2027 9.155 51.3927 8.44 51.7727 7.82C52.1627 7.19 52.6877 6.7 53.3477 6.35C54.0177 5.99 54.7827 5.81 55.6427 5.81C56.4927 5.81 57.2527 5.99 57.9227 6.35C58.5927 6.7 59.1177 7.185 59.4977 7.805C59.8777 8.425 60.0677 9.145 60.0677 9.965C60.0677 10.765 59.8777 11.48 59.4977 12.11C59.1177 12.73 58.5927 13.22 57.9227 13.58C57.2527 13.94 56.4927 14.12 55.6427 14.12ZM55.6427 12.2C56.0327 12.2 56.3827 12.11 56.6927 11.93C57.0027 11.75 57.2477 11.495 57.4277 11.165C57.6077 10.825 57.6977 10.425 57.6977 9.965C57.6977 9.495 57.6077 9.095 57.4277 8.765C57.2477 8.435 57.0027 8.18 56.6927 8C56.3827 7.82 56.0327 7.73 55.6427 7.73C55.2527 7.73 54.9027 7.82 54.5927 8C54.2827 8.18 54.0327 8.435 53.8427 8.765C53.6627 9.095 53.5727 9.495 53.5727 9.965C53.5727 10.425 53.6627 10.825 53.8427 11.165C54.0327 11.495 54.2827 11.75 54.5927 11.93C54.9027 12.11 55.2527 12.2 55.6427 12.2ZM66.5368 5.81C67.1768 5.81 67.7468 5.94 68.2468 6.2C68.7568 6.45 69.1568 6.84 69.4468 7.37C69.7368 7.89 69.8818 8.56 69.8818 9.38V14H67.5418V9.74C67.5418 9.09 67.3968 8.61 67.1068 8.3C66.8268 7.99 66.4268 7.835 65.9068 7.835C65.5368 7.835 65.2018 7.915 64.9018 8.075C64.6118 8.225 64.3818 8.46 64.2118 8.78C64.0518 9.1 63.9718 9.51 63.9718 10.01V14H61.6318V5.93H63.8668V8.165L63.4468 7.49C63.7368 6.95 64.1518 6.535 64.6918 6.245C65.2318 5.955 65.8468 5.81 66.5368 5.81ZM76.9079 5.81C77.5479 5.81 78.1179 5.94 78.6179 6.2C79.1279 6.45 79.5279 6.84 79.8179 7.37C80.1079 7.89 80.2529 8.56 80.2529 9.38V14H77.9129V9.74C77.9129 9.09 77.7679 8.61 77.4779 8.3C77.1979 7.99 76.7979 7.835 76.2779 7.835C75.9079 7.835 75.5729 7.915 75.2729 8.075C74.9829 8.225 74.7529 8.46 74.5829 8.78C74.4229 9.1 74.3429 9.51 74.3429 10.01V14H72.0029V5.93H74.2379V8.165L73.8179 7.49C74.1079 6.95 74.5229 6.535 75.0629 6.245C75.6029 5.955 76.2179 5.81 76.9079 5.81ZM86.4375 14.12C85.5175 14.12 84.7075 13.94 84.0075 13.58C83.3175 13.22 82.7825 12.73 82.4025 12.11C82.0225 11.48 81.8325 10.765 81.8325 9.965C81.8325 9.155 82.0175 8.44 82.3875 7.82C82.7675 7.19 83.2825 6.7 83.9325 6.35C84.5825 5.99 85.3175 5.81 86.1375 5.81C86.9275 5.81 87.6375 5.98 88.2675 6.32C88.9075 6.65 89.4125 7.13 89.7825 7.76C90.1525 8.38 90.3375 9.125 90.3375 9.995C90.3375 10.085 90.3325 10.19 90.3225 10.31C90.3125 10.42 90.3025 10.525 90.2925 10.625H83.7375V9.26H89.0625L88.1625 9.665C88.1625 9.245 88.0775 8.88 87.9075 8.57C87.7375 8.26 87.5025 8.02 87.2025 7.85C86.9025 7.67 86.5525 7.58 86.1525 7.58C85.7525 7.58 85.3975 7.67 85.0875 7.85C84.7875 8.02 84.5525 8.265 84.3825 8.585C84.2125 8.895 84.1275 9.265 84.1275 9.695V10.055C84.1275 10.495 84.2225 10.885 84.4125 11.225C84.6125 11.555 84.8875 11.81 85.2375 11.99C85.5975 12.16 86.0175 12.245 86.4975 12.245C86.9275 12.245 87.3025 12.18 87.6225 12.05C87.9525 11.92 88.2525 11.725 88.5225 11.465L89.7675 12.815C89.3975 13.235 88.9325 13.56 88.3725 13.79C87.8125 14.01 87.1675 14.12 86.4375 14.12ZM95.7954 14.12C94.9254 14.12 94.1504 13.945 93.4704 13.595C92.7904 13.235 92.2554 12.74 91.8654 12.11C91.4854 11.48 91.2954 10.765 91.2954 9.965C91.2954 9.155 91.4854 8.44 91.8654 7.82C92.2554 7.19 92.7904 6.7 93.4704 6.35C94.1504 5.99 94.9254 5.81 95.7954 5.81C96.6454 5.81 97.3854 5.99 98.0154 6.35C98.6454 6.7 99.1104 7.205 99.4104 7.865L97.5954 8.84C97.3854 8.46 97.1204 8.18 96.8004 8C96.4904 7.82 96.1504 7.73 95.7804 7.73C95.3804 7.73 95.0204 7.82 94.7004 8C94.3804 8.18 94.1254 8.435 93.9354 8.765C93.7554 9.095 93.6654 9.495 93.6654 9.965C93.6654 10.435 93.7554 10.835 93.9354 11.165C94.1254 11.495 94.3804 11.75 94.7004 11.93C95.0204 12.11 95.3804 12.2 95.7804 12.2C96.1504 12.2 96.4904 12.115 96.8004 11.945C97.1204 11.765 97.3854 11.48 97.5954 11.09L99.4104 12.08C99.1104 12.73 98.6454 13.235 98.0154 13.595C97.3854 13.945 96.6454 14.12 95.7954 14.12ZM104.175 14.12C103.225 14.12 102.485 13.88 101.955 13.4C101.425 12.91 101.16 12.185 101.16 11.225V4.145H103.5V11.195C103.5 11.535 103.59 11.8 103.77 11.99C103.95 12.17 104.195 12.26 104.505 12.26C104.875 12.26 105.19 12.16 105.45 11.96L106.08 13.61C105.84 13.78 105.55 13.91 105.21 14C104.88 14.08 104.535 14.12 104.175 14.12ZM99.9149 7.91V6.11H105.51V7.91H99.9149ZM114.327 14L110.892 3.5H113.412L116.397 12.8H115.137L118.257 3.5H120.507L123.507 12.8H122.292L125.352 3.5H127.677L124.242 14H121.632L118.977 5.84H119.667L116.937 14H114.327ZM129 14V5.93H131.34V14H129ZM130.17 4.805C129.74 4.805 129.39 4.68 129.12 4.43C128.85 4.18 128.715 3.87 128.715 3.5C128.715 3.13 128.85 2.82 129.12 2.57C129.39 2.32 129.74 2.195 130.17 2.195C130.6 2.195 130.95 2.315 131.22 2.555C131.49 2.785 131.625 3.085 131.625 3.455C131.625 3.845 131.49 4.17 131.22 4.43C130.96 4.68 130.61 4.805 130.17 4.805ZM136.812 14.12C135.862 14.12 135.122 13.88 134.592 13.4C134.062 12.91 133.797 12.185 133.797 11.225V4.145H136.137V11.195C136.137 11.535 136.227 11.8 136.407 11.99C136.587 12.17 136.832 12.26 137.142 12.26C137.512 12.26 137.827 12.16 138.087 11.96L138.717 13.61C138.477 13.78 138.187 13.91 137.847 14C137.517 14.08 137.172 14.12 136.812 14.12ZM132.552 7.91V6.11H138.147V7.91H132.552ZM144.935 5.81C145.575 5.81 146.145 5.94 146.645 6.2C147.155 6.45 147.555 6.84 147.845 7.37C148.135 7.89 148.28 8.56 148.28 9.38V14H145.94V9.74C145.94 9.09 145.795 8.61 145.505 8.3C145.225 7.99 144.825 7.835 144.305 7.835C143.935 7.835 143.6 7.915 143.3 8.075C143.01 8.225 142.78 8.46 142.61 8.78C142.45 9.1 142.37 9.51 142.37 10.01V14H140.03V2.87H142.37V8.165L141.845 7.49C142.135 6.95 142.55 6.535 143.09 6.245C143.63 5.955 144.245 5.81 144.935 5.81ZM159.479 14.18C157.989 14.18 156.824 13.765 155.984 12.935C155.144 12.105 154.724 10.92 154.724 9.38V3.5H157.154V9.29C157.154 10.29 157.359 11.01 157.769 11.45C158.179 11.89 158.754 12.11 159.494 12.11C160.234 12.11 160.809 11.89 161.219 11.45C161.629 11.01 161.834 10.29 161.834 9.29V3.5H164.234V9.38C164.234 10.92 163.814 12.105 162.974 12.935C162.134 13.765 160.969 14.18 159.479 14.18ZM169.186 14.12C168.496 14.12 167.831 14.04 167.191 13.88C166.561 13.71 166.061 13.5 165.691 13.25L166.471 11.57C166.841 11.8 167.276 11.99 167.776 12.14C168.286 12.28 168.786 12.35 169.276 12.35C169.816 12.35 170.196 12.285 170.416 12.155C170.646 12.025 170.761 11.845 170.761 11.615C170.761 11.425 170.671 11.285 170.491 11.195C170.321 11.095 170.091 11.02 169.801 10.97C169.511 10.92 169.191 10.87 168.841 10.82C168.501 10.77 168.156 10.705 167.806 10.625C167.456 10.535 167.136 10.405 166.846 10.235C166.556 10.065 166.321 9.835 166.141 9.545C165.971 9.255 165.886 8.88 165.886 8.42C165.886 7.91 166.031 7.46 166.321 7.07C166.621 6.68 167.051 6.375 167.611 6.155C168.171 5.925 168.841 5.81 169.621 5.81C170.171 5.81 170.731 5.87 171.301 5.99C171.871 6.11 172.346 6.285 172.726 6.515L171.946 8.18C171.556 7.95 171.161 7.795 170.761 7.715C170.371 7.625 169.991 7.58 169.621 7.58C169.101 7.58 168.721 7.65 168.481 7.79C168.241 7.93 168.121 8.11 168.121 8.33C168.121 8.53 168.206 8.68 168.376 8.78C168.556 8.88 168.791 8.96 169.081 9.02C169.371 9.08 169.686 9.135 170.026 9.185C170.376 9.225 170.726 9.29 171.076 9.38C171.426 9.47 171.741 9.6 172.021 9.77C172.311 9.93 172.546 10.155 172.726 10.445C172.906 10.725 172.996 11.095 172.996 11.555C172.996 12.055 172.846 12.5 172.546 12.89C172.246 13.27 171.811 13.57 171.241 13.79C170.681 14.01 169.996 14.12 169.186 14.12Z" fill="#FEFEFE"/>
<ellipse cx="20.9671" cy="42.6667" rx="20.764" ry="20.6667" fill="#FEFEFE"/>
<ellipse cx="67.8538" cy="42.6667" rx="20.764" ry="20.6667" fill="#FEFEFE"/>
<ellipse cx="114.741" cy="42.6667" rx="20.764" ry="20.6667" fill="#FEFEFE"/>
<ellipse cx="161.626" cy="42.6667" rx="20.764" ry="20.6667" fill="#FEFEFE"/>
<ellipse cx="208.848" cy="42.6667" rx="20.764" ry="20.6667" fill="#FEFEFE"/>
<path d="M16.01 30H27.2627C31.5495 30 35.0325 33.4667 35.0325 37.7333V48.9333C35.0325 50.9843 34.2139 52.9513 32.7568 54.4016C31.2997 55.8519 29.3234 56.6667 27.2627 56.6667H16.01C11.7232 56.6667 8.24023 53.2 8.24023 48.9333V37.7333C8.24023 35.6823 9.05883 33.7153 10.5159 32.265C11.9731 30.8148 13.9493 30 16.01 30ZM15.7421 32.6667C14.463 32.6667 13.2364 33.1724 12.332 34.0726C11.4276 34.9727 10.9195 36.1936 10.9195 37.4667V49.2C10.9195 51.8533 13.0762 54 15.7421 54H27.5307C28.8097 54 30.0363 53.4943 30.9408 52.5941C31.8452 51.6939 32.3533 50.473 32.3533 49.2V37.4667C32.3533 34.8133 30.1965 32.6667 27.5307 32.6667H15.7421ZM28.6693 34.6667C29.1134 34.6667 29.5394 34.8423 29.8534 35.1548C30.1674 35.4674 30.3438 35.8913 30.3438 36.3333C30.3438 36.7754 30.1674 37.1993 29.8534 37.5118C29.5394 37.8244 29.1134 38 28.6693 38C28.2252 38 27.7993 37.8244 27.4853 37.5118C27.1712 37.1993 26.9948 36.7754 26.9948 36.3333C26.9948 35.8913 27.1712 35.4674 27.4853 35.1548C27.7993 34.8423 28.2252 34.6667 28.6693 34.6667ZM21.6364 36.6667C23.4128 36.6667 25.1165 37.369 26.3726 38.6193C27.6287 39.8695 28.3344 41.5652 28.3344 43.3333C28.3344 45.1014 27.6287 46.7971 26.3726 48.0474C25.1165 49.2976 23.4128 50 21.6364 50C19.8599 50 18.1562 49.2976 16.9001 48.0474C15.644 46.7971 14.9383 45.1014 14.9383 43.3333C14.9383 41.5652 15.644 39.8695 16.9001 38.6193C18.1562 37.369 19.8599 36.6667 21.6364 36.6667ZM21.6364 39.3333C20.5705 39.3333 19.5483 39.7548 18.7946 40.5049C18.0409 41.2551 17.6175 42.2725 17.6175 43.3333C17.6175 44.3942 18.0409 45.4116 18.7946 46.1618C19.5483 46.9119 20.5705 47.3333 21.6364 47.3333C22.7022 47.3333 23.7244 46.9119 24.4781 46.1618C25.2318 45.4116 25.6552 44.3942 25.6552 43.3333C25.6552 42.2725 25.2318 41.2551 24.4781 40.5049C23.7244 39.7548 22.7022 39.3333 21.6364 39.3333Z" fill="#B52626"/>
<path d="M74.4714 35.093C73.5557 34.0525 73.0511 32.7163 73.0514 31.333H68.912V47.8663C68.8801 48.761 68.5006 49.6085 67.8534 50.2303C67.2062 50.852 66.3419 51.1995 65.4424 51.1997C63.5402 51.1997 61.9594 49.653 61.9594 47.733C61.9594 45.4397 64.1832 43.7197 66.4739 44.4263V40.213C61.8523 39.5997 57.8066 43.173 57.8066 47.733C57.8066 52.173 61.504 55.333 65.429 55.333C69.6354 55.333 73.0514 51.933 73.0514 47.733V39.3463C74.73 40.5461 76.7452 41.1899 78.8118 41.1863V37.0663C78.8118 37.0663 76.2933 37.1863 74.4714 35.093Z" fill="#B52626"/>
<path d="M118.934 48.9617C119.178 46.9783 117.891 45.7137 114.492 44.6369C112.845 44.0796 112.069 43.3491 112.087 42.3452C112.156 41.2305 113.202 40.4188 114.59 40.3924C115.682 40.4041 116.748 40.7305 117.657 41.3319C117.78 41.4079 117.867 41.3952 117.937 41.2896C118.033 41.1376 118.272 40.7692 118.352 40.6352C118.406 40.5507 118.417 40.4388 118.279 40.3396C118.083 40.195 117.53 39.9015 117.234 39.778C116.388 39.423 115.48 39.2386 114.562 39.2354C112.53 39.2439 110.93 40.518 110.795 42.2186C110.709 43.4473 111.322 44.442 112.636 45.2027C112.916 45.3632 114.424 45.9586 115.024 46.1443C116.911 46.727 117.891 47.7721 117.66 48.9913C117.451 50.0965 116.278 50.8111 114.662 50.8323C113.382 50.7837 112.229 50.2654 111.335 49.5761L111.185 49.46C111.074 49.3755 110.953 49.3808 110.879 49.4916C110.826 49.5729 110.479 50.0691 110.392 50.1989C110.31 50.3129 110.355 50.3762 110.44 50.4459C110.812 50.7552 111.309 51.093 111.647 51.264C112.581 51.7363 113.609 51.9983 114.657 52.0314C115.411 52.067 116.164 51.9395 116.864 51.6577C118.029 51.1669 118.783 50.1862 118.934 48.9617ZM114.741 31.4789C112.54 31.4789 110.746 33.5373 110.662 36.113H118.818C118.732 33.5363 116.939 31.4778 114.741 31.4778M123.094 55.3323L123.009 55.3333L106.215 55.3312C105.072 55.289 104.233 54.3706 104.118 53.2295L104.107 53.0237L103.355 36.6344C103.35 36.5686 103.359 36.5025 103.38 36.44C103.402 36.3776 103.436 36.3203 103.481 36.2715C103.526 36.2227 103.58 36.1834 103.641 36.1562C103.702 36.1289 103.767 36.1142 103.834 36.113H109.127C109.256 32.7108 111.719 30 114.741 30C117.762 30 120.223 32.7118 120.353 36.1119H125.639C125.705 36.1121 125.771 36.1257 125.831 36.1517C125.892 36.1777 125.947 36.2157 125.993 36.2634C126.038 36.311 126.074 36.3674 126.097 36.429C126.119 36.4906 126.13 36.5562 126.126 36.6218L125.304 53.0765L125.296 53.2147C125.196 54.3696 124.255 55.3017 123.094 55.3323Z" fill="#B52626"/>
<path d="M163.61 35.1544C161.481 33.3651 153.153 33.7665 153.153 33.7665L152.859 53.9333C152.859 53.9333 163.94 54.016 167.352 53.9333C170.764 53.8505 173.148 51.1488 173.185 49.0673C173.222 46.9858 173.185 34.1322 173.185 34.1322C168.929 33.6202 165.774 34.0223 163.61 35.1544Z" stroke="#B52626" stroke-linecap="round" stroke-linejoin="round"/>
<path d="M158.947 46.3999C161.338 46.3999 163.276 44.4707 163.276 42.091C163.276 39.7114 161.338 37.7822 158.947 37.7822C156.556 37.7822 154.618 39.7114 154.618 42.091C154.618 44.4707 156.556 46.3999 158.947 46.3999Z" stroke="#B52626" stroke-linecap="round" stroke-linejoin="round"/>
<path d="M166.712 45.2769C167.58 45.6691 168.563 45.7303 169.474 45.4491C170.384 45.1679 171.16 44.5637 171.653 43.7512C172.145 42.9388 172.321 41.9745 172.147 41.0414C171.973 40.1084 171.461 39.2714 170.708 38.6893C169.954 38.1072 169.013 37.8206 168.062 37.8837C167.11 37.9468 166.215 38.3554 165.546 39.0318C164.877 39.7082 164.481 40.6055 164.433 41.5533C164.385 42.5011 164.688 43.4336 165.285 44.1738M153.153 33.7667L150.364 35.7754L150.24 51.4776L152.859 53.9341M167.737 34.0138C167.55 32.9075 166.98 31.9011 166.126 31.1684C165.272 30.4357 164.188 30.0228 163.061 30.0009C161.934 29.979 160.835 30.3495 159.953 31.0485C159.071 31.7474 158.462 32.7309 158.231 33.8291" stroke="#B52626" stroke-linecap="round" stroke-linejoin="round"/>
<path d="M159.564 39.5183C159.679 39.857 159.669 40.2256 159.535 40.5574C159.401 40.8892 159.152 41.1624 158.833 41.3274C158.515 41.4924 158.147 41.5384 157.797 41.4571C157.447 41.3757 157.138 41.1724 156.926 40.8839C156.65 41.3845 156.543 41.9602 156.62 42.526C156.698 43.0919 156.957 43.6178 157.358 44.0261C157.759 44.4344 158.281 44.7036 158.848 44.7937C159.415 44.8839 159.995 44.7904 160.504 44.5269C161.013 44.2634 161.424 43.844 161.675 43.3306C161.926 42.8171 162.005 42.2369 161.899 41.6756C161.794 41.1142 161.51 40.6015 161.089 40.2132C160.669 39.8248 160.134 39.5814 159.563 39.5189M168.172 39.3052C168.319 39.6206 168.348 39.9778 168.253 40.3124C168.159 40.647 167.947 40.937 167.657 41.13C167.366 41.3231 167.016 41.4065 166.67 41.3652C166.323 41.3239 166.002 41.1607 165.766 40.9049C165.552 41.4183 165.51 41.9865 165.646 42.5254C165.782 43.0644 166.088 43.5457 166.52 43.8982C166.951 44.2506 167.485 44.4557 168.043 44.483C168.6 44.5103 169.152 44.3585 169.616 44.0499C170.08 43.7413 170.433 43.2923 170.621 42.7692C170.809 42.2461 170.823 41.6766 170.662 41.1448C170.5 40.613 170.17 40.1471 169.722 39.8158C169.274 39.4846 168.731 39.3056 168.172 39.3052ZM161.945 46.5664C161.945 44.8265 163.205 44.1192 164.875 44.1192C166.361 44.1192 167.205 46.1279 167.205 46.1279C165.744 46.7463 164.169 47.0512 162.582 47.0229C163.497 47.868 164.648 48.4156 165.884 48.593C165.884 48.593 165.371 48.9759 163.609 48.9759C162.178 48.9766 161.945 47.4614 161.945 46.5664Z" stroke="#B52626" stroke-linecap="round" stroke-linejoin="round"/>
<path d="M165.64 46.6597C165.677 47.2834 165.624 47.9093 165.48 48.5176" stroke="#B52626" stroke-linecap="round" stroke-linejoin="round"/>
<g clip-path="url(#clip0_586_1669)">
<path d="M204.963 49.9273C205.709 50.8856 206.388 51.895 206.996 52.9482C207.514 53.9388 207.73 54.6105 208.109 55.804C208.342 56.4634 208.552 56.6602 209.003 56.6602C209.495 56.6602 209.718 56.3254 209.891 55.8076C210.249 54.6805 210.53 53.8203 210.974 53.0075C211.844 51.4382 212.925 50.0438 213.987 48.7036C214.275 48.3243 216.134 46.1146 216.971 44.3711C216.971 44.3711 218 42.4558 218 39.7809C218 37.2788 216.985 35.5435 216.985 35.5435L214.064 36.3317L212.29 41.0394L211.851 41.6885L211.763 41.8061L211.647 41.9533L211.442 42.1885L211.149 42.4834L209.569 43.7801L205.62 46.0778L204.963 49.9273Z" fill="#B52626"/>
<path d="M200.887 44.0491C201.851 46.2675 203.709 48.2176 204.967 49.9289L211.647 41.9565C211.647 41.9565 210.706 43.1965 208.999 43.1965C207.097 43.1965 205.561 41.6666 205.561 39.7375C205.561 38.4147 206.351 37.5059 206.351 37.5059L201.817 38.7301L200.887 44.0491Z" fill="#B52626"/>
<path d="M211.721 31.0771C213.94 31.7979 215.839 33.3109 216.987 35.542L211.649 41.9519C211.649 41.9519 212.439 41.0266 212.439 39.712C212.439 37.738 210.789 36.2633 209.007 36.2633C207.321 36.2633 206.354 37.5013 206.354 37.5013V33.4631L211.721 31.0771Z" fill="#B52626"/>
<path d="M202.11 33.9092C203.435 32.3119 205.767 30.667 208.981 30.667C210.541 30.667 211.716 31.0795 211.716 31.0795L206.348 37.5046H202.546L202.11 33.9092Z" fill="#B52626"/>
<path d="M200.887 44.049C200.887 44.049 200 42.2992 200 39.7644C200 37.3687 200.924 35.2745 202.11 33.9092L206.352 37.5052L200.887 44.049Z" fill="#B52626"/>
</g>
<defs>
<clipPath id="clip0_586_1669">
<rect width="18" height="26" fill="white" transform="translate(200 30.667)"/>
</clipPath>
</defs>
</svg>
