<svg width="613" height="564" viewBox="0 0 613 564" fill="none" xmlns="http://www.w3.org/2000/svg">
<path fill-rule="evenodd" clip-rule="evenodd" d="M144.68 168.805L167.03 159.045L174.526 88.8846C174.526 88.8846 161.654 87.2579 162.574 77.9221C163.564 68.5156 166.11 65.7572 173.607 66.1816C181.104 66.6767 183.438 24.0997 200.978 20.8463C218.518 17.5222 243.555 15.6833 247.021 30.8894C250.557 46.0954 239.311 104.303 236.977 107.839C234.644 111.375 229.693 121.136 229.693 121.136C229.693 121.136 238.251 161.308 246.455 162.015C254.659 162.652 266.258 161.237 266.258 161.237L270.219 232.741L181.316 267.397L130.818 201.834L144.68 168.805Z" fill="#00A2E9" stroke="#332C2B" stroke-width="3.99965"/>
<path fill-rule="evenodd" clip-rule="evenodd" d="M421.784 368.182C421.784 368.182 475.607 397.604 502.765 385.015C529.853 372.355 593.507 150.629 593.507 150.629C593.507 150.629 613.734 126.158 610.127 119.864C606.45 113.569 598.528 115.549 598.528 115.549C598.528 115.549 597.255 104.445 586.576 104.516C586.576 104.516 587.636 92.1391 573.703 95.534C573.703 95.534 609.137 21.8376 596.76 31.6685C584.383 41.4994 540.604 104.163 537.35 112.579C537.35 112.579 526.388 110.74 524.266 118.944C522.144 127.078 520.305 138.111 516.981 150.064C513.728 161.946 479.709 260.184 475.465 259.052C471.292 257.85 458.845 253.394 458.845 253.394L434.798 288.757L421.784 368.182Z" fill="#00A2E9" stroke="#332C2B" stroke-width="3.99965"/>
<path fill-rule="evenodd" clip-rule="evenodd" d="M22.8904 563.738L102.457 544.076L89.3728 427.096L3.29932 436.432C3.29932 436.432 17.3031 505.672 20.1321 534.67C22.8904 563.738 22.8904 563.738 22.8904 563.738Z" fill="#00A2E9"/>
<path d="M102.457 544.076L89.3728 427.096L3.29932 436.432C3.29932 436.432 17.3031 505.672 20.1321 534.67C22.8904 563.738 22.8904 563.738 22.8904 563.738" stroke="#332C2B" stroke-width="3.99965"/>
<path fill-rule="evenodd" clip-rule="evenodd" d="M254.447 162.299C254.447 162.299 312.937 156.216 324.678 161.379C336.347 166.542 435.081 234.368 435.081 234.368C435.081 234.368 408.841 327.019 388.755 346.186L339.176 317.613L361.597 496.337L102.457 544.077L89.7968 412.598C89.7968 412.598 59.8797 425.258 8.39127 423.348C8.39127 423.348 4.43062 300.78 12.6348 281.401C20.839 261.951 41.8446 228.781 72.2568 210.534C102.669 192.286 147.085 167.462 147.085 167.462C147.085 167.462 175.163 228.286 220.569 233.873C265.975 239.531 254.447 162.299 254.447 162.299Z" fill="#FF5500"/>
<path fill-rule="evenodd" clip-rule="evenodd" d="M412.802 299.862C412.802 299.862 419.38 275.32 422.633 263.863C425.886 252.405 436.707 226.166 439.466 227.58C442.295 228.995 461.674 240.24 461.249 244.201C460.754 248.162 437.344 313.866 432.464 333.811C427.584 353.685 419.097 381.48 410.963 376.812C402.759 372.144 382.885 363.728 388.048 354.392C393.14 344.985 412.802 303.116 412.802 299.862Z" fill="#FF5500" stroke="#332C2B" stroke-width="3.99965"/>
<path fill-rule="evenodd" clip-rule="evenodd" d="M89.7969 412.596C89.7969 412.596 66.8817 422.427 38.8035 421.932C10.7253 421.507 4.64284 415.849 4.21848 428.509C3.7234 441.169 -1.43959 458.002 14.0494 458.002C29.4676 458.002 93.5453 451.919 94.0404 447.251C94.4648 442.513 89.7969 412.596 89.7969 412.596Z" fill="#FF5500" stroke="#332C2B" stroke-width="3.99965"/>
<path d="M89.797 412.598L86.2607 364.15" stroke="#332C2B" stroke-width="3.99965" stroke-linecap="round"/>
<path d="M339.176 317.612L332.387 280.905" stroke="#332C2B" stroke-width="3.99965" stroke-linecap="round"/>
<path fill-rule="evenodd" clip-rule="evenodd" d="M538.977 111.801C538.977 111.801 577.594 113.64 581.059 119.934C584.666 126.441 552.84 121.42 549.02 124.885C541.877 131.463 538.27 140.516 538.27 140.516L522.357 140.798C522.357 140.798 519.811 108.052 538.977 111.801Z" fill="#00A2E9"/>
<path d="M522.357 140.798C522.357 140.798 519.811 108.052 538.977 111.801C538.977 111.801 577.594 113.64 581.059 119.934C584.666 126.441 552.84 121.42 549.02 124.885C541.877 131.463 538.27 140.516 538.27 140.516" stroke="#332C2B" stroke-width="3.99965"/>
<path d="M575.401 91.29C575.401 91.29 567.197 113.569 562.246 115.408" stroke="#332C2B" stroke-width="3.99965"/>
<path d="M586.576 103.456C586.576 103.456 577.594 117.248 576.179 120.006" stroke="#332C2B" stroke-width="3.99965"/>
<path d="M576.179 120.004C576.179 120.004 570.946 130.047 570.592 130.966C570.238 131.886 565.995 143.485 574.199 142.282C582.403 141.151 599.236 115.548 599.236 115.548C599.236 115.548 592.093 134.573 590.607 139.029C589.051 143.485 591.032 145.323 591.032 145.323L594.992 149.072" stroke="#332C2B" stroke-width="3.99965"/>
<path fill-rule="evenodd" clip-rule="evenodd" d="M218.801 47.6514V54.1582C218.801 54.1582 212.012 50.6926 200.342 58.1895C200.342 58.1895 207.485 48.2879 218.801 47.6514Z" fill="#332C2B" stroke="#332C2B" stroke-width="0.755866" stroke-linecap="round" stroke-linejoin="round"/>
<path fill-rule="evenodd" clip-rule="evenodd" d="M229.976 47.5098V54.0873C229.976 54.0873 236.766 50.551 248.436 58.0479C248.436 58.0479 241.292 48.217 229.976 47.5098Z" fill="#332C2B" stroke="#332C2B" stroke-width="0.755866" stroke-linecap="round" stroke-linejoin="round"/>
<path d="M202.393 66.1117C202.393 66.1117 210.88 57.9782 221.206 64.8386" stroke="#332C2B" stroke-width="0.755866" stroke-linecap="round" stroke-linejoin="round"/>
<path d="M229.269 64.556C229.269 64.556 237.261 56.4225 247.091 63.283" stroke="#332C2B" stroke-width="0.755866" stroke-linecap="round" stroke-linejoin="round"/>
<path fill-rule="evenodd" clip-rule="evenodd" d="M215.335 73.3262C215.335 73.3262 221.134 86.4812 229.763 79.4086C229.763 79.4086 222.903 95.7463 219.154 88.1786C215.406 80.5402 215.335 73.3262 215.335 73.3262Z" fill="#332C2B" stroke="#332C2B" stroke-width="0.755866"/>
<path fill-rule="evenodd" clip-rule="evenodd" d="M245.535 79.4076C245.535 79.4076 249.567 44.0447 245.535 35.4868C241.433 26.9997 238.604 27.9191 235.421 34.2137C232.309 40.5791 224.317 45.247 219.296 41.4985C214.274 37.75 211.021 29.4044 205.646 33.1529C200.271 36.9013 186.408 56.7046 185.843 65.8282C185.277 74.9519 179.76 75.8713 176.648 66.1819C173.465 56.4217 170.212 35.9819 177.921 25.7266C185.63 15.4007 199.422 2.52853 215.194 2.03345C230.966 1.60909 243.484 5.21612 250.627 13.2081C257.771 21.1294 259.397 63.4943 245.535 79.4076Z" fill="#F8FA01" stroke="#332C2B" stroke-width="3.99965"/>
<path d="M102.457 544.077L89.7968 412.598C89.7968 412.598 59.8797 425.258 8.39127 423.348C8.39127 423.348 4.43062 300.78 12.6348 281.401C20.839 261.951 41.8446 228.781 72.2568 210.534C102.669 192.286 147.085 167.462 147.085 167.462C147.085 167.462 175.163 228.286 220.569 233.873C265.975 239.531 254.447 162.299 254.447 162.299C254.447 162.299 312.937 156.216 324.678 161.379C336.347 166.542 435.081 234.368 435.081 234.368C435.081 234.368 408.841 327.019 388.755 346.186L339.176 317.613L361.597 496.337" stroke="#332C2B" stroke-width="3.99965"/>
</svg>
