<svg width="824" height="628" viewBox="0 0 824 628" fill="none" xmlns="http://www.w3.org/2000/svg">
<path fill-rule="evenodd" clip-rule="evenodd" d="M352.799 292.804C352.799 292.804 342.759 298.954 339.956 281.95C337.061 264.856 325.846 242.697 330.459 232.296C335.162 221.804 357.231 181.556 345.292 139.68C333.353 97.8037 270.494 125.299 268.142 151.076C265.7 176.762 257.922 168.713 249.872 172.873C241.822 177.034 244.536 192.319 252.585 198.288C260.635 204.258 251.681 278.151 250.505 283.849C249.239 289.547 225.361 290.452 225.904 293.437C226.537 296.421 258.555 372.667 308.209 369.411C357.864 366.155 359.944 327.806 360.848 312.611C361.753 297.326 352.799 292.804 352.799 292.804Z" fill="#FF4262" stroke="#332C2B" stroke-width="4.00002"/>
<path fill-rule="evenodd" clip-rule="evenodd" d="M57.4966 625.371C57.4966 625.371 63.0137 528.866 68.35 523.168C73.6863 517.47 160.423 524.886 169.106 528.866C177.698 532.845 175.075 626.366 175.075 626.366L57.4966 625.371Z" fill="#FF4262"/>
<path d="M57.4966 626.187C57.4966 626.187 63.0137 529.773 68.35 524.075C73.6863 518.377 160.423 525.703 169.106 529.773C177.698 533.752 175.075 627.273 175.075 627.273" stroke="#332C2B" stroke-width="4.00002"/>
<path fill-rule="evenodd" clip-rule="evenodd" d="M228.437 297.688C228.437 297.688 258.013 351.141 289.126 361.542C320.239 371.853 336.158 358.376 345.745 321.656C355.332 284.935 346.559 289.728 367.271 290.542C387.983 291.356 407.971 284.121 429.497 307.275C451.023 330.429 505.29 402.966 505.29 402.966L447.858 482.015L456.631 596.88C456.631 596.88 178.24 612.166 178.24 619.13C178.24 626.185 180.592 513.852 180.592 513.852L68.8921 504.264C68.8921 504.264 116.014 336.036 143.962 324.007C171.819 312.068 222.106 290.542 228.437 297.688Z" fill="#F7D51E"/>
<path d="M178.24 619.13C170.281 614.155 180.592 513.852 180.592 513.852L68.8921 504.264C68.8921 504.264 116.014 336.036 143.962 324.007C171.819 312.068 222.106 290.542 228.437 297.688C228.437 297.688 258.013 351.141 289.126 361.542C320.239 371.853 336.158 358.376 345.745 321.656C355.332 284.935 346.559 289.728 367.271 290.542C387.983 291.356 407.971 284.121 429.497 307.275C451.023 330.429 505.29 402.966 505.29 402.966L447.858 482.015L456.631 596.88" stroke="#332C2B" stroke-width="4.00002"/>
<path fill-rule="evenodd" clip-rule="evenodd" d="M449.667 479.394C445.596 473.063 495.432 411.199 512.707 398.355C515.872 396.004 535.951 413.279 532.062 418.344C512.978 442.854 469.926 511.955 465.585 504.9L456.359 489.615L449.667 479.394Z" fill="#F7D51E" stroke="#332C2B" stroke-width="4.00002"/>
<path fill-rule="evenodd" clip-rule="evenodd" d="M65.2748 507.068C67.2645 500.194 178.874 516.022 178.874 516.022L176.522 551.386C136.817 545.417 86.5294 548.944 62.2901 538.181C59.3054 536.824 56.6825 535.287 54.6022 533.478C49.5373 529.227 62.1092 517.741 65.2748 507.068Z" fill="#F7D51E" stroke="#332C2B" stroke-width="4.00002"/>
<path d="M194.521 455.155L180.502 520.999" stroke="#332C2B" stroke-width="4.00002" stroke-linecap="round"/>
<path d="M429.315 422.865C436.008 439.959 441.526 457.777 443.968 466.822L448.942 496.488" stroke="#332C2B" stroke-width="4.00002" stroke-linecap="round"/>
<path fill-rule="evenodd" clip-rule="evenodd" d="M161.869 30.5137C161.869 30.5137 168.472 3.38012 196.872 2.02345C225.362 0.757214 269.047 51.0447 288.855 88.0368C308.662 125.119 236.577 138.957 231.965 143.661C227.352 148.273 174.08 283.218 174.08 283.218C174.08 283.218 165.487 299.046 142.966 296.784C120.446 294.433 88.0662 276.253 74.4994 255.089C60.9327 233.925 48.9939 214.751 30.5431 200.822C12.0018 186.984 8.38399 154.514 41.1252 155.509C73.8663 156.504 121.712 113.814 121.079 99.3425C120.355 84.7808 122.345 71.8471 139.62 62.8931C156.805 54.0294 161.869 30.5137 161.869 30.5137Z" stroke="#332C2B" stroke-width="2.66693"/>
<path fill-rule="evenodd" clip-rule="evenodd" d="M528.082 429.92L473.001 501.643C473.001 501.643 517.862 551.298 541.83 557.9C565.707 564.503 575.928 555.549 588.499 538.816C601.071 521.993 697.305 331.154 719.464 322.833C741.623 314.422 809.819 322.471 812.984 312.884C816.06 303.387 778.254 300.493 778.254 300.493C778.254 300.493 638.877 290.001 630.466 302.302C622.145 314.603 554.944 441.859 550.965 445.115C546.895 448.461 528.082 429.92 528.082 429.92Z" fill="#FF4262" stroke="#332C2B" stroke-width="4.00002"/>
<path fill-rule="evenodd" clip-rule="evenodd" d="M720.48 295.898C720.48 295.898 755.704 275.334 781.148 269.897C806.502 264.46 814.018 268.019 815.919 271.578C817.73 275.236 815.285 278.498 803.695 280.871C792.014 283.243 760.05 295.898 754.618 295.997C749.275 295.997 720.48 295.898 720.48 295.898Z" fill="#FF4262" stroke="#332C2B" stroke-width="4.00002"/>
<path fill-rule="evenodd" clip-rule="evenodd" d="M772.113 291.869C772.113 291.869 814.17 298.019 817.788 301.999C821.406 306.069 826.2 315.023 813.989 313.395C801.689 311.858 766.777 299.286 756.828 297.658C746.97 296.12 772.113 291.869 772.113 291.869Z" fill="#FF4262" stroke="#332C2B" stroke-width="4.00002"/>
<path fill-rule="evenodd" clip-rule="evenodd" d="M650.304 295.724C677.178 282.095 739.182 270.198 751.91 285.443C751.91 285.443 709.992 294.278 699.496 294.546C688.908 294.81 650.304 295.724 650.304 295.724Z" fill="#FF4262" stroke="#332C2B" stroke-width="4.00002"/>
<path fill-rule="evenodd" clip-rule="evenodd" d="M350.267 139.499C350.267 139.499 375.953 95.2714 339.413 74.9212C302.964 54.5711 291.297 91.3823 273.388 85.6842C255.39 79.9862 254.485 36.0298 205.464 17.7599C156.352 -0.510077 143.78 97.623 121.35 110.195C98.9197 122.767 61.8371 112.637 43.929 106.667C25.9304 100.608 -2.46941 120.415 2.59552 150.624C7.7509 180.833 27.468 178.752 47.8181 198.469C68.1683 218.186 92.0458 251.108 100.186 261.871C108.236 272.634 143.78 292.352 177.878 271.459C211.976 250.475 212.881 234.014 229.07 234.014C245.26 234.014 252.405 259.52 252.405 259.52C252.405 259.52 259.731 206.971 254.033 200.55C248.335 194.128 238.024 186.44 246.707 175.315C255.39 164.281 260.364 178.571 263.801 175.858C267.238 173.145 261.088 147.277 272.755 134.886C284.423 122.495 314.451 108.386 329.103 118.697C343.755 129.007 350.267 139.499 350.267 139.499Z" fill="#40BD01" stroke="#332C2B" stroke-width="4.00002"/>
<path fill-rule="evenodd" clip-rule="evenodd" d="M313.637 142.483L313.728 151.257C313.728 151.257 310.472 149.538 302.331 151.257C294.282 153.065 289.488 155.327 289.488 155.327C289.488 155.327 295.91 148.724 313.637 142.483Z" fill="#332C2B" stroke="#332C2B" stroke-width="0.755933" stroke-linejoin="round"/>
<path fill-rule="evenodd" clip-rule="evenodd" d="M325.034 142.937L324.943 151.71C324.943 151.71 328.199 149.991 336.249 151.71C344.389 153.519 349.183 155.78 349.183 155.78C349.183 155.78 342.671 149.177 325.034 142.937Z" fill="#332C2B" stroke="#332C2B" stroke-width="0.755933" stroke-linejoin="round"/>
<path fill-rule="evenodd" clip-rule="evenodd" d="M315.265 163.646C315.265 163.646 299.256 154.692 291.387 165.093C291.387 165.093 302.331 179.745 315.265 163.646Z" fill="white" stroke="#332C2B" stroke-width="0.755933"/>
<path d="M300.613 170.521C303.31 170.521 305.497 168.334 305.497 165.637C305.497 162.94 303.31 160.753 300.613 160.753C297.916 160.753 295.729 162.94 295.729 165.637C295.729 168.334 297.916 170.521 300.613 170.521Z" fill="#332C2B" stroke="#332C2B" stroke-width="0.755933"/>
<path fill-rule="evenodd" clip-rule="evenodd" d="M348.55 163.646C348.55 163.646 332.541 154.692 324.582 165.093C324.582 165.093 335.525 179.745 348.55 163.646Z" fill="white" stroke="#332C2B" stroke-width="0.755933"/>
<path d="M333.264 170.521C335.961 170.521 338.148 168.334 338.148 165.637C338.148 162.94 335.961 160.753 333.264 160.753C330.567 160.753 328.38 162.94 328.38 165.637C328.38 168.334 330.567 170.521 333.264 170.521Z" fill="#332C2B" stroke="#332C2B" stroke-width="0.755933"/>
<path fill-rule="evenodd" clip-rule="evenodd" d="M321.053 166.36L324.943 180.922L318.973 181.465L320.33 175.948L321.053 166.36Z" fill="#332C2B" stroke="#332C2B" stroke-width="0.755933"/>
<path fill-rule="evenodd" clip-rule="evenodd" d="M308.391 184.811C308.391 184.811 315.898 196.388 326.48 190.328C326.48 190.328 320.149 201.181 312.642 197.382C305.226 193.674 308.391 184.811 308.391 184.811Z" fill="#332C2B" stroke="#332C2B" stroke-width="0.755933"/>
</svg>
